<svg xmlns="http://www.w3.org/2000/svg" width="111" height="111" fill="none" xmlns:v="https://vecta.io/nano"><path fill="#e5e5e5" d="M0 0h111v111H0z"/><path d="M110 1H1v109h109V1z" fill="#fff" stroke="#000" stroke-width="2"/><path d="M71 55.5a14.5 14.5 0 0 1-4.247 10.253A14.5 14.5 0 0 1 56.5 70a14.5 14.5 0 0 1-10.253-4.247A14.5 14.5 0 0 1 42 55.5a14.5 14.5 0 0 1 4.247-10.253A14.5 14.5 0 0 1 56.5 41a14.5 14.5 0 0 1 5.549 1.104c1.759.729 3.358 1.797 4.704 3.143s2.415 2.945 3.143 4.704A14.5 14.5 0 0 1 71 55.5h0z" fill="#000"/></svg>