<svg xmlns="http://www.w3.org/2000/svg" width="111" height="111" fill="none" xmlns:v="https://vecta.io/nano"><path fill="#e5e5e5" d="M0 0h111v111H0z"/><path d="M110 .999H1V110h109V.999z" fill="#fff" stroke="#000" stroke-width="2"/><path d="M35 89.5a14.5 14.5 0 0 1-4.247 10.253 14.48 14.48 0 0 1-4.704 3.143C24.29 103.625 22.404 104 20.5 104s-3.79-.375-5.549-1.104a14.48 14.48 0 0 1-4.704-3.143 14.5 14.5 0 0 1 0-20.506 14.5 14.5 0 0 1 15.802-3.143 14.51 14.51 0 0 1 4.704 3.143c1.346 1.346 2.415 2.945 3.143 4.704A14.5 14.5 0 0 1 35 89.5h0zm68-68c0 1.904-.375 3.79-1.104 5.549a14.51 14.51 0 0 1-3.143 4.704 14.5 14.5 0 0 1-20.506 0 14.5 14.5 0 0 1 0-20.506 14.5 14.5 0 0 1 20.506 0c1.346 1.346 2.415 2.945 3.143 4.704S103 19.596 103 21.5h0zm-68 0A14.5 14.5 0 0 1 20.5 36 14.5 14.5 0 0 1 6 21.5 14.5 14.5 0 0 1 20.5 7a14.5 14.5 0 0 1 10.253 4.247c1.346 1.346 2.415 2.945 3.143 4.704A14.5 14.5 0 0 1 35 21.5h0zm68 68c0 1.904-.375 3.79-1.104 5.549a14.51 14.51 0 0 1-3.143 4.704 14.48 14.48 0 0 1-4.704 3.143C92.29 103.625 90.404 104 88.5 104s-3.79-.375-5.549-1.104a14.48 14.48 0 0 1-4.704-3.143 14.5 14.5 0 0 1 0-20.506 14.5 14.5 0 0 1 15.802-3.143 14.51 14.51 0 0 1 4.704 3.143c1.346 1.346 2.415 2.945 3.143 4.704S103 87.596 103 89.5h0zm0-34c0 1.904-.375 3.79-1.104 5.549a14.51 14.51 0 0 1-3.143 4.704 14.5 14.5 0 0 1-20.506 0 14.5 14.5 0 0 1 0-20.506 14.5 14.5 0 0 1 15.802-3.143 14.51 14.51 0 0 1 4.704 3.143c1.346 1.346 2.415 2.945 3.143 4.704S103 53.596 103 55.5h0zm-68 0A14.5 14.5 0 0 1 20.5 70 14.5 14.5 0 0 1 6 55.5 14.5 14.5 0 0 1 20.5 41a14.5 14.5 0 0 1 5.549 1.104 14.51 14.51 0 0 1 4.704 3.143c1.346 1.346 2.415 2.945 3.143 4.704A14.5 14.5 0 0 1 35 55.5h0z" fill="#000"/></svg>