<svg xmlns="http://www.w3.org/2000/svg" width="111" height="111" fill="none" xmlns:v="https://vecta.io/nano"><path fill="#e5e5e5" d="M0 0h111v111H0z"/><path d="M110 1H1v109h109V1z" fill="#fff" stroke="#000" stroke-width="2"/><path d="M36 89.5a14.5 14.5 0 0 1-4.247 10.253 14.48 14.48 0 0 1-4.704 3.143C25.29 103.625 23.404 104 21.5 104s-3.79-.375-5.549-1.104a14.48 14.48 0 0 1-4.704-3.143 14.5 14.5 0 0 1 0-20.506 14.5 14.5 0 0 1 15.802-3.143 14.51 14.51 0 0 1 4.704 3.143c1.346 1.346 2.415 2.945 3.143 4.704A14.5 14.5 0 0 1 36 89.5h0zm68-68c0 1.904-.375 3.79-1.104 5.549a14.51 14.51 0 0 1-3.143 4.704 14.5 14.5 0 0 1-20.506 0 14.5 14.5 0 0 1 0-20.506 14.5 14.5 0 0 1 20.506 0c1.346 1.346 2.415 2.945 3.143 4.704S104 19.596 104 21.5h0zm-34 34A14.5 14.5 0 0 1 55.5 70 14.5 14.5 0 0 1 41 55.5 14.5 14.5 0 0 1 55.5 41a14.5 14.5 0 0 1 5.549 1.104 14.51 14.51 0 0 1 4.704 3.143c1.346 1.346 2.415 2.945 3.143 4.704A14.5 14.5 0 0 1 70 55.5h0z" fill="#000"/></svg>